<svg id="Layer_1" data-name="Layer 1" xmlns="http://www.w3.org/2000/svg" viewBox="0 0 27.19 23.44"><defs><style>.cls-1{fill:#fff;}</style></defs><title>pokemon</title><path class="cls-1" d="M16.74,27.6c7.33.09,8.36-3.79,8.36-3.79a1.63,1.63,0,0,0,.6-2.07c-2-8.87-.86-8.1-.86-8.1s5-2.58,4.66-9.48c0,0-4.23.09-7,7.41,0,0-1.47-2.84-6.38-2.67H15.7c-4.92,0-6.38,2.67-6.38,2.67-2.76-7.32-7-7.41-7-7.41C2,11.06,7,13.64,7,13.64s1.12-.77-.86,8.1a1.65,1.65,0,0,0,.6,2.07s1,3.88,8.36,3.79Z" transform="translate(-2.32 -4.16)"/></svg>